<?xml version="1.0" encoding="UTF-8" ?>
<!DOCTYPE svg PUBLIC "-//W3C//DTD SVG 1.1//EN" "http://www.w3.org/Graphics/SVG/1.1/DTD/svg11.dtd">
<svg width="280pt" height="173pt" viewBox="0 0 280 173" version="1.1" xmlns="http://www.w3.org/2000/svg">
<g id="#eb001bff">
<path fill="#eb001b" opacity="1.00" d=" M 85.29 0.00 L 89.49 0.00 C 107.63 0.76 125.76 7.00 139.86 18.56 C 126.43 29.54 115.97 44.27 110.93 60.93 C 104.97 80.19 105.96 101.55 113.81 120.13 C 119.42 133.53 128.48 145.51 139.97 154.41 C 124.67 166.88 104.72 173.46 85.01 172.93 C 62.10 172.82 39.53 162.77 23.85 146.11 C 9.08 130.82 0.52 109.87 0.00 88.64 L 0.00 85.27 C 0.28 63.25 9.30 41.47 24.87 25.87 C 40.56 9.71 62.80 0.29 85.29 0.00 Z" />
</g>
<g id="#f79e1bff">
<path fill="#f79e1b" opacity="1.00" d=" M 192.26 0.00 L 194.77 0.00 C 217.48 0.30 239.89 9.97 255.60 26.39 C 270.08 41.10 278.76 61.18 280.00 81.75 L 280.00 96.26 L 279.77 92.50 C 278.61 112.91 269.57 132.69 255.19 147.18 C 239.32 163.46 216.75 173.12 193.97 172.94 C 174.67 173.27 155.33 166.63 140.24 154.61 C 152.13 144.63 161.98 132.00 167.37 117.35 C 175.67 95.58 174.72 70.44 164.62 49.43 C 159.02 37.37 150.28 27.07 140.25 18.46 C 154.85 6.69 173.55 0.29 192.26 0.00 Z" />
</g>
<g id="#ff5a00ff">
<path fill="#ff5a00" opacity="1.00" d=" M 139.86 18.56 C 139.96 18.53 140.15 18.48 140.25 18.46 C 150.28 27.07 159.02 37.37 164.62 49.43 C 174.72 70.44 175.67 95.58 167.37 117.35 C 161.98 132.00 152.13 144.63 140.24 154.61 L 139.97 154.41 C 128.48 145.51 119.42 133.53 113.81 120.13 C 105.96 101.55 104.97 80.19 110.93 60.93 C 115.97 44.27 126.43 29.54 139.86 18.56 Z" />
</g>
</svg>
