<?xml version="1.0" encoding="UTF-8" ?>
<!DOCTYPE svg PUBLIC "-//W3C//DTD SVG 1.1//EN" "http://www.w3.org/Graphics/SVG/1.1/DTD/svg11.dtd">
<svg width="280pt" height="173pt" viewBox="0 0 280 173" version="1.1" xmlns="http://www.w3.org/2000/svg">
<g id="#f3f4f6ff">
<path fill="#f3f4f6" opacity="1.00" d=" M 168.56 40.73 C 173.78 40.49 179.24 39.62 184.30 41.36 C 188.96 42.16 193.63 43.06 198.05 44.81 C 196.48 50.93 195.21 57.13 193.98 63.32 C 186.79 60.11 178.74 58.36 170.88 59.51 C 167.26 60.13 163.14 62.03 162.11 65.89 C 161.64 69.72 165.31 72.07 168.13 73.82 C 175.58 78.13 184.03 81.47 189.45 88.47 C 195.39 96.04 194.72 107.11 190.16 115.18 C 185.09 123.96 175.29 128.73 165.64 130.52 C 164.42 131.67 162.63 131.48 161.10 131.64 C 155.55 131.65 149.98 131.84 144.45 131.36 L 144.66 130.52 C 139.52 130.02 134.50 128.61 129.69 126.78 L 129.27 126.13 C 130.55 119.90 132.06 113.71 133.19 107.44 C 140.85 111.28 149.43 113.64 158.05 113.07 C 162.66 112.61 168.34 110.84 169.85 105.92 C 170.89 102.39 167.98 99.49 165.34 97.68 C 157.74 92.65 148.53 89.60 142.68 82.27 C 136.77 74.99 137.59 64.17 142.26 56.48 C 147.89 47.53 158.38 42.56 168.66 41.56 L 168.56 40.73 Z" />
<path fill="#f3f4f6" opacity="1.00" d=" M 0.00 42.32 C 11.00 42.35 21.99 42.28 32.99 42.35 C 37.91 42.31 42.45 46.13 43.10 51.04 C 46.40 67.96 49.46 84.94 52.86 101.85 C 60.65 81.98 68.53 62.14 76.42 42.30 C 84.37 42.34 92.32 42.32 100.27 42.32 C 87.90 71.46 75.76 100.70 63.53 129.90 C 55.53 129.93 47.52 129.97 39.52 129.88 C 33.59 106.62 27.47 83.42 21.47 60.18 C 20.77 57.17 19.27 54.18 16.46 52.65 C 11.31 49.78 5.59 48.18 0.00 46.40 L 0.00 42.32 Z" />
<path fill="#f3f4f6" opacity="1.00" d=" M 109.77 42.30 C 117.34 42.38 124.91 42.25 132.49 42.37 C 126.03 71.50 120.07 100.74 113.80 129.91 C 106.25 130.01 98.69 129.74 91.14 130.07 C 97.21 100.79 103.54 71.56 109.77 42.30 Z" />
<path fill="#f3f4f6" opacity="1.00" d=" M 225.95 49.95 C 227.43 46.10 230.67 42.44 235.08 42.37 C 241.86 42.25 248.64 42.36 255.43 42.33 C 261.50 71.59 267.68 100.83 273.73 130.09 C 266.74 129.77 259.74 129.95 252.75 129.96 C 251.79 125.55 250.79 121.16 249.97 116.72 C 240.31 116.66 230.64 116.73 220.98 116.68 C 219.37 121.09 217.95 125.57 216.30 129.96 C 208.36 129.97 200.42 129.74 192.50 130.10 C 203.63 103.38 214.79 76.66 225.95 49.95 M 239.20 66.08 C 235.56 77.10 231.43 87.95 227.53 98.88 C 233.84 98.81 240.15 98.85 246.47 98.85 C 243.87 87.97 242.01 76.90 239.20 66.08 Z" />
</g>
</svg>
